<svg width="52" height="42" viewBox="0 0 52 42" fill="none" xmlns="http://www.w3.org/2000/svg">
<g clip-path="url(#clip0_242_514)">
<path d="M6.63088 5.43464L0.172029 31.473C-0.533998 34.3193 0.997766 37.1685 3.58369 37.819L8.08512 38.9514L19.6738 41.8665C22.2597 42.517 24.9421 40.7279 25.6481 37.8816L32.107 11.8432C32.813 8.99696 31.2812 6.14769 28.6953 5.49719L17.1066 2.582L17.0108 2.5579L12.6051 1.44964C9.92344 0.775048 7.33691 2.58833 6.63088 5.43464Z" fill="#A5CAEC"/>
<g style="mix-blend-mode:multiply" opacity="0.85">
<path d="M17.8148 12.7055L26.9976 37.9004C28.0014 40.6546 30.8581 42.1451 33.3603 41.2202L37.7159 39.6103L48.9292 35.4656C51.4314 34.5408 52.6523 31.5432 51.6485 28.789L42.4657 3.59404C41.462 0.839971 38.6052 -0.650555 36.1031 0.27428L24.8897 4.41893L24.7971 4.45318L20.5341 6.02884C17.9392 6.98794 16.811 9.95136 17.8148 12.7055Z" fill="#138BF9"/>
</g>
</g>
<defs>
<clipPath id="clip0_242_514">
<rect width="52" height="42" fill="white"/>
</clipPath>
</defs>
</svg>
