<svg width="140" height="50"  viewBox="0 0 140 112" fill="none" xmlns="http://www.w3.org/2000/svg">
<path fill-rule="evenodd" clip-rule="evenodd" d="M120.651 60.3163C120.651 59.5826 121.056 58.7125 121.528 58.3806C123.416 57.0531 127.812 57.9053 127.812 60.3163C127.812 62.5174 123.569 63.6242 121.632 62.286C121.114 61.9272 120.651 61.1612 120.651 60.3163ZM118.86 52.3657C118.86 53.32 119.587 54.0681 120.511 54.0681C120.92 54.0681 124.175 51.6194 127.018 53.4653C127.899 54.0358 127.81 54.3982 127.81 55.7723C125.309 54.0465 121.268 54.2959 119.234 56.1598C116.984 58.2228 117.176 62.7004 119.267 64.4351C121.737 66.4855 125.354 66.5053 127.947 64.7149C128.118 65.3733 128.784 65.8935 129.533 65.7751C130.222 65.6657 130.84 65.0289 130.84 64.2898V54.3515C130.84 53.6052 130.455 52.7962 130.154 52.3621C127.062 47.8934 118.86 49.7896 118.86 52.3657Z" fill="black"/>
<path fill-rule="evenodd" clip-rule="evenodd" d="M89.9414 57.9008C89.9414 52.7092 95.6823 50.6534 97.8871 55.6727C100.099 60.7065 93.7402 65.5644 90.7384 60.6293C90.3416 59.9781 89.9431 58.9108 89.9431 57.899L89.9414 57.9008ZM98.3413 51.3709C97.9532 51.2633 97.7914 51.0588 97.4973 50.822C95.7223 49.3994 93.1729 49.4192 91.2256 50.422C87.2789 52.4527 85.4691 58.5843 88.8955 63.0959C90.7192 65.4944 94.0239 66.5151 96.7856 65.098C97.4991 64.732 97.7653 64.4037 98.3413 64.0055C98.39 66.2514 101.096 65.8245 101.096 64.1472V47.3956C101.096 45.6591 98.317 44.8985 98.3361 47.8154C98.3431 48.9994 98.3413 50.1852 98.3413 51.3709Z" fill="black"/>
<path fill-rule="evenodd" clip-rule="evenodd" d="M111.424 55.7722H106.329V49.0989H111.424C115.119 49.0989 115.266 55.7722 111.424 55.7722ZM103.299 47.8216V63.7211C103.299 66.7797 106.329 66.0747 106.329 64.4314V59.0372C109.941 59.0372 113.183 59.5753 115.456 57.2325C119.253 53.3164 117.158 45.8358 110.872 45.8358H105.227C104.021 45.8358 103.299 46.582 103.299 47.8234V47.8216Z" fill="black"/>
<path fill-rule="evenodd" clip-rule="evenodd" d="M79.7508 53.2178C82.4272 53.2178 82.9023 54.6744 83.7445 56.4827H76.4462C76.5627 55.0386 78.1376 53.2178 79.7525 53.2178H79.7508ZM73.5539 57.1931C73.5539 59.5951 73.6566 60.9118 75.0105 62.9318C77.5982 66.7959 82.4324 66.394 84.5937 63.6045C85.3873 62.582 86.1025 61.7083 85.2933 60.5674C84.0717 58.8453 82.6273 61.5541 82.5473 61.6366C80.1301 64.1337 76.648 61.9433 76.4479 59.4659C77.8661 59.4659 85.2916 59.7279 85.9859 59.2202C86.4645 58.8704 86.6802 58.3214 86.588 57.5429C86.3339 55.4009 85.8502 53.7021 84.4058 52.1145C81.7276 49.1743 77.0744 49.5295 74.7651 53.3308C74.2796 54.1309 73.5557 55.9624 73.5557 57.1949L73.5539 57.1931Z" fill="black"/>
<path fill-rule="evenodd" clip-rule="evenodd" d="M48.7648 55.3471C48.7648 58.4308 49.5096 60.8849 51.3455 62.7667C54.4326 65.9311 58.9345 66.7258 62.481 64.5175C66.7584 61.8536 64.1185 60.3162 63.7757 60.3162C62.0077 60.3162 63.0205 60.5315 60.9653 61.8213C55.073 65.515 48.6238 57.4782 53.3641 51.1475C54.9755 48.9966 58.2802 48.1983 60.9653 49.8703C62.3749 50.7493 62.5906 51.5171 63.3615 51.5171C64.517 51.5171 66.6383 49.7375 62.2026 47.0341C58.7065 44.9029 54.4326 45.7461 51.5526 48.7132C50.585 49.7106 50.3309 50.1411 49.6801 51.4686C49.1528 52.5468 48.763 53.7971 48.763 55.3507L48.7648 55.3471Z" fill="black"/>
<path fill-rule="evenodd" clip-rule="evenodd" d="M131.805 47.8234V63.8646C131.805 66.4586 134.835 66.1482 134.835 64.4333V47.2566C134.835 45.4734 131.805 45.1649 131.805 47.8252V47.8234Z" fill="black"/>
<path fill-rule="evenodd" clip-rule="evenodd" d="M68.8711 51.9403C68.5143 50.5608 66.1163 51.0577 66.1163 52.509V64.4331C66.1163 65.8772 68.4012 66.2916 68.9963 64.8475C69.4645 63.7084 68.7858 56.7624 69.3183 55.5264C70.3955 53.031 72.5272 54.3836 73.6009 53.8383C74.6781 53.2929 75.1584 50.9465 71.7615 50.9465C70.3415 50.9465 69.7133 51.3573 68.8693 51.9403H68.8711Z" fill="black"/>
<path fill-rule="evenodd" clip-rule="evenodd" d="M135.799 64.2914C135.799 66.5284 139.518 67.1402 139.518 64.008C139.518 61.7799 135.799 61.7082 135.799 64.2914Z" fill="black"/>
<path fill-rule="evenodd" clip-rule="evenodd" d="M0 55.921C0 60.0523 1.69147 64.3828 4.40618 67.158C9.719 72.59 17.4577 73.5551 23.8598 69.5278C24.4289 69.1708 25.3512 68.4604 25.7984 68.0047C29.6269 64.094 28.9725 63.0787 28.9725 57.4709V50.7079C28.9725 48.548 29.6477 47.2546 30.5909 46.0365C31.7899 44.4902 33.6241 43.9466 35.6706 43.9466C40.6423 43.9466 43.7729 50.7097 39.8088 54.9756C38.4131 56.4771 36.0012 57.2969 33.8138 56.7067C33.1055 56.5147 33.1038 56.3443 32.2528 56.3443C30.5231 56.3443 29.5277 59.2433 31.8578 60.1313C35.5018 61.5198 39.0466 60.5493 41.937 58.1544C48.4367 52.7709 45.2069 40 35.2599 40C33.5841 40 31.6768 40.5812 30.5683 41.2217C28.0555 42.6747 26.1291 45.0786 25.5009 48.1139C25.118 49.9616 25.2816 57.5534 25.2833 60.0057C25.2851 62.9477 24.6917 64.4044 22.3337 65.9812C17.6839 69.0901 11.3826 68.8999 7.48285 64.8313C6.54662 63.8554 5.6104 62.7414 5.00829 61.4659C3.10103 57.4225 3.46821 52.6507 5.9567 48.9588C6.22295 48.5623 6.3204 48.5247 6.57969 48.1928C6.8442 47.8555 6.88944 47.7605 7.2079 47.4304C8.74275 45.8374 11.7533 43.9466 14.7604 43.9466C16.3857 43.9466 17.0226 43.8713 18.6462 44.309C19.8626 44.6373 19.7025 44.9333 21.1834 44.9333C22.4346 44.9333 22.687 43.6578 22.687 42.6801C22.687 40.7642 17.7692 40.0036 15.58 40.0036C12.954 40.0036 11.1129 40.6333 9.27177 41.3903C8.34947 41.7706 7.58552 42.2514 6.80417 42.7913C6.39349 43.0748 6.09765 43.3295 5.72003 43.647C5.5025 43.83 5.43464 43.9323 5.22581 44.1242C3.99723 45.2526 2.95138 46.4455 2.14044 47.9865C1.85679 48.5265 1.67059 48.7471 1.42522 49.3624C0.643873 51.3178 0.0017402 53.2211 0.0017402 55.9246L0 55.921Z" fill="black"/>
</svg>
