<svg width="16" height="16" viewBox="0 0 16 16" fill="none" xmlns="http://www.w3.org/2000/svg">
<rect width="16" height="16" rx="8" fill="#FA8A67"/>
<path fill-rule="evenodd" clip-rule="evenodd" d="M9.04547 5.6326C9.24838 5.4453 9.56471 5.45795 9.75201 5.66086L11.3674 7.41084C11.5442 7.60237 11.5442 7.89759 11.3674 8.08912L9.75202 9.83914C9.56472 10.0421 9.24839 10.0547 9.04548 9.86741C8.84256 9.68011 8.82991 9.36378 9.01721 9.16087L9.85802 8.24998L5 8.24998C4.72386 8.24998 4.5 8.02613 4.5 7.74998C4.5 7.47384 4.72386 7.24998 5 7.24998L9.858 7.24998L9.01721 6.33915C8.82991 6.13624 8.84256 5.81991 9.04547 5.6326Z" fill="#FCFCFD"/>
</svg>
