<svg width="42" height="41" viewBox="0 0 42 41" fill="none" xmlns="http://www.w3.org/2000/svg">
<g clip-path="url(#clip0_242_519)">
<g style="mix-blend-mode:multiply" opacity="0.85">
<path d="M41.2902 10.6426L31.0422 0.672888C30.5961 0.238893 29.9952 -0.00292331 29.3702 2.66769e-05C28.7453 0.00297666 28.1468 0.250454 27.7048 0.68864L17.3058 10.9998C17.0856 11.2181 16.9109 11.4773 16.7918 11.7625C16.6726 12.0478 16.6113 12.3535 16.6113 12.6623V38.6488C16.6113 39.2724 16.8611 39.8704 17.3058 40.3113C17.7505 40.7523 18.3536 41 18.9825 41H39.6296C40.2585 41 40.8616 40.7523 41.3063 40.3113C41.751 39.8704 42.0008 39.2724 42.0008 38.6488V12.3209C42.0008 12.0083 41.9379 11.6989 41.8159 11.4108C41.6939 11.1226 41.5152 10.8614 41.2902 10.6426ZM29.3172 14.4019C28.5945 14.4019 27.8879 14.1894 27.287 13.7912C26.6861 13.3931 26.2178 12.8272 25.9412 12.1652C25.6646 11.5031 25.5922 10.7745 25.7332 10.0717C25.8742 9.36884 26.2222 8.72322 26.7333 8.21649C27.2443 7.70976 27.8955 7.36468 28.6044 7.22487C29.3132 7.08506 30.0479 7.15682 30.7157 7.43106C31.3834 7.7053 31.9541 8.16972 32.3556 8.76557C32.7571 9.36142 32.9714 10.062 32.9714 10.7786C32.9714 11.7395 32.5865 12.6611 31.9012 13.3406C31.2159 14.0202 30.2864 14.4019 29.3172 14.4019Z" fill="#7C48EC"/>
</g>
<g style="mix-blend-mode:multiply">
<path d="M38.0654 18.9981L37.7594 4.76589C37.7461 4.14634 37.4866 3.55706 37.0374 3.12619C36.5882 2.69531 35.9857 2.4577 35.3608 2.46501L20.6553 2.63704C20.3439 2.64067 20.0363 2.70509 19.7501 2.82661C19.4638 2.94812 19.2045 3.12437 18.987 3.34527L0.674931 21.936C0.235531 22.3821 -0.00724659 22.983 0.000164837 23.6065C0.00757627 24.23 0.264487 24.8251 0.714368 25.2608L15.4854 39.5653C15.9353 40.001 16.5413 40.2416 17.1701 40.2342C17.7989 40.2269 18.3991 39.9721 18.8385 39.5261L37.3911 20.691C37.6113 20.4674 37.7845 20.2026 37.9003 19.9119C38.016 19.6212 38.0722 19.3106 38.0654 18.9981ZM26.8508 13.3925C26.3338 12.8918 25.9781 12.2503 25.8288 11.5492C25.6794 10.848 25.7432 10.1187 26.0118 9.45341C26.2805 8.78814 26.7421 8.21681 27.3382 7.81168C27.9344 7.40654 28.6384 7.18579 29.361 7.17734C30.0837 7.16889 30.7927 7.37312 31.3983 7.7642C32.004 8.15528 32.479 8.71564 32.7635 9.37444C33.0479 10.0332 33.1289 10.7609 32.9962 11.4653C32.8636 12.1698 32.5234 12.8194 32.0184 13.3321C31.3412 14.0196 30.4163 14.4121 29.4472 14.4235C28.4781 14.4348 27.5442 14.064 26.8508 13.3925Z" fill="#BBCCF3"/>
</g>
</g>
<defs>
<clipPath id="clip0_242_519">
<rect width="42" height="41" fill="white"/>
</clipPath>
</defs>
</svg>
