<svg width="48" height="50" viewBox="0 0 48 50" fill="none" xmlns="http://www.w3.org/2000/svg">
<path d="M24.6139 12.0805H21.3282V3.69127H23.1659C23.6533 3.69128 24.1207 3.49684 24.4654 3.15073C24.81 2.80461 25.0036 2.33518 25.0037 1.84569C25.0036 1.35619 24.81 0.886699 24.4654 0.540577C24.1207 0.194456 23.6533 4.82249e-06 23.1659 0H6.23699C5.74961 4.82249e-06 5.28217 0.194456 4.93753 0.540577C4.59289 0.886699 4.39926 1.35614 4.39925 1.84564C4.39927 2.33513 4.59289 2.80461 4.93753 3.15073C5.28217 3.49684 5.74961 3.69128 6.23699 3.69127H8.07474V12.0805H4.78924C3.51908 12.0805 2.30096 12.5873 1.40281 13.4893C0.504655 14.3913 2.21003e-05 15.6147 2.23692e-07 16.8904V40.604C-0.000263394 41.4703 0.232479 42.3205 0.673603 43.0649C1.11473 43.8093 1.74788 44.4203 2.50614 44.8331V47.707C2.50614 48.3151 2.74667 48.8983 3.17483 49.3283C3.603 49.7584 4.18372 50 4.78924 50C5.39476 50 5.97548 49.7584 6.40365 49.3283C6.83181 48.8983 7.07234 48.3151 7.07234 47.707V45.4139H22.3308V47.7069C22.3308 48.3151 22.5713 48.8983 22.9995 49.3283C23.4277 49.7584 24.0083 49.9999 24.6139 49.9999C25.2194 49.9999 25.8001 49.7584 26.2283 49.3283C26.6564 48.8983 26.897 48.3151 26.897 47.7069V44.8331C27.6552 44.4202 28.2883 43.8093 28.7294 43.0649C29.1705 42.3205 29.4032 41.4703 29.4029 40.604V16.8904C29.4029 16.2588 29.2791 15.6333 29.0384 15.0497C28.7977 14.4662 28.445 13.936 28.0002 13.4893C27.5555 13.0427 27.0276 12.6884 26.4466 12.4467C25.8656 12.2049 25.2428 12.0805 24.6139 12.0805ZM10.7014 3.69127H18.7015V12.0805H10.7014V3.69127Z" fill="#D3C1E6"/>
<path opacity="0.9" d="M34 3C31.2311 3 28.5243 3.82108 26.222 5.35942C23.9198 6.89776 22.1253 9.08426 21.0657 11.6424C20.0061 14.2006 19.7288 17.0155 20.269 19.7313C20.8092 22.447 22.1426 24.9415 24.1005 26.8995C26.0584 28.8574 28.553 30.1908 31.2687 30.731C33.9845 31.2712 36.7994 30.9939 39.3576 29.9343C41.9157 28.8747 44.1022 27.0803 45.6405 24.778C47.1789 22.4757 48 19.7689 48 17C48 13.287 46.525 9.72602 43.8995 7.10051C41.274 4.47501 37.713 3 34 3ZM40.2898 12.4993L31.9434 22.2557C31.8508 22.3639 31.7359 22.4508 31.6066 22.5103C31.4773 22.5699 31.3366 22.6008 31.1942 22.6008C31.1786 22.6008 31.1629 22.6004 31.1473 22.5996C30.9971 22.5925 30.8506 22.5512 30.7189 22.4787C30.5872 22.4063 30.4737 22.3047 30.3873 22.1818L27.2485 17.7169C27.1738 17.611 27.1207 17.4914 27.0923 17.3649C27.0639 17.2384 27.0607 17.1076 27.0828 16.9799C27.105 16.8522 27.1521 16.7301 27.2215 16.6206C27.2909 16.5112 27.3813 16.4164 27.4873 16.3419C27.5933 16.2673 27.713 16.2144 27.8395 16.1862C27.966 16.158 28.0968 16.1549 28.2245 16.1773C28.3522 16.1996 28.4742 16.247 28.5836 16.3165C28.693 16.3861 28.7876 16.4765 28.862 16.5827L31.2703 20.0085L38.7912 11.2172C38.9612 11.0184 39.2033 10.8954 39.464 10.8751C39.7248 10.8548 39.9829 10.9389 40.1816 11.1089C40.3804 11.279 40.5034 11.521 40.5237 11.7817C40.544 12.0425 40.4599 12.3006 40.2898 12.4993Z" fill="#870AFF" fill-opacity="0.7"/>
</svg>
